Coordinates
version=1
nRows=7
nColumns=40
inDegrees=yes

Units are S.I. units (second, meters, Newtons, ...)
If the header above contains a line with 'inDegrees', this indicates whether rotational values are in degrees (yes) or radians (no).

endheader
time	pelvis_tilt	pelvis_list	pelvis_rotation	pelvis_tx	pelvis_ty	pelvis_tz	hip_flexion_r	hip_adduction_r	hip_rotation_r	knee_angle_r	knee_angle_r_beta	ankle_angle_r	subtalar_angle_r	mtp_angle_r	hip_flexion_l	hip_adduction_l	hip_rotation_l	knee_angle_l	knee_angle_l_beta	ankle_angle_l	subtalar_angle_l	mtp_angle_l	lumbar_extension	lumbar_bending	lumbar_rotation	arm_flex_r	arm_add_r	arm_rot_r	elbow_flex_r	pro_sup_r	wrist_flex_r	wrist_dev_r	arm_flex_l	arm_add_l	arm_rot_l	elbow_flex_l	pro_sup_l	wrist_flex_l	wrist_dev_l
      0.07000000	     -0.81952169	      6.78412128	      6.17696970	     -0.50885802	      0.89915060	      0.18846839	     28.40267665	    -13.16208162	    -17.84040361	     10.39810659	      0.18148120	     -1.03948196	      4.44660765	      0.00000000	    -19.56078561	      2.44105967	    -14.97367244	     13.43166425	      0.23442677	      4.54258344	     16.24862774	      0.00000000	     -2.65580039	     -3.99599724	      0.27428035	     44.26450858	    -16.08384376	     44.26450858	     75.15417793	     44.87038197	      0.00000000	      0.00000000	     44.26450858	    -16.08384376	     44.26450858	     75.15417793	     44.87038197	      0.00000000	      0.00000000
      0.07500000	     -0.60455979	      6.50627116	      6.20548590	     -0.50069372	      0.89902585	      0.18902711	     28.12548060	    -12.87204508	    -17.72821536	     11.07444335	      0.19328550	     -1.55238986	      3.94880272	      0.00000000	    -19.90613216	      1.93418442	    -14.93596372	     14.01738535	      0.24464953	      3.65598424	     15.69681763	      0.00000000	     -2.79683710	     -3.56023428	      0.03471727	     44.26490513	    -16.08287787	     44.26490513	     75.15390913	     44.87100923	      0.00000000	      0.00000000	     44.26490513	    -16.08287787	     44.26490513	     75.15390913	     44.87100923	      0.00000000	      0.00000000
      0.08000000	     -0.32124664	      6.11239560	      6.25807226	     -0.49256640	      0.89911983	      0.18952614	     27.73591150	    -12.46582807	    -17.71339492	     11.71138145	      0.20440217	     -2.16226616	      3.33546594	      0.00000000	    -20.25574003	      1.29494207	    -14.85349653	     14.70279089	      0.25661211	      2.79221499	     14.99438428	      0.00000000	     -3.01143920	     -2.99644949	     -0.30138827	     44.26543717	    -16.08158245	     44.26543717	     75.15354896	     44.87184683	      0.00000000	      0.00000000	     44.26543717	    -16.08158245	     44.26543717	     75.15354896	     44.87184683	      0.00000000	      0.00000000
      0.08500000	      0.31367168	      5.16343732	      6.59346787	     -0.48431933	      0.90014805	      0.18913096	     26.49705961	    -11.50800156	    -18.12382620	     11.58211134	      0.20214598	     -3.28485735	      2.58952091	      0.00000000	    -20.86252064	     -0.05076956	    -14.71752810	     15.49427789	      0.27042616	      2.01322117	     14.37550643	      0.00000000	     -3.57156890	     -1.77539196	     -1.36749859	     44.26845296	    -16.07425073	     44.26845296	     75.15151811	     44.87650498	      0.00000000	      0.00000000	     44.26845296	    -16.07425073	     44.26845296	     75.15151811	     44.87650498	      0.00000000	      0.00000000
      0.09000000	      0.55554545	      4.85926439	      6.46184929	     -0.47612644	      0.90029686	      0.19007644	     26.26527724	    -11.14186100	    -18.00661269	     12.37637147	      0.21600843	     -3.84144308	      2.20155161	      0.00000000	    -21.11731639	     -0.55551119	    -14.85052759	     16.25725468	      0.28374262	      0.83338840	     13.66581958	      0.00000000	     -3.72162635	     -1.40796154	     -1.59748307	     44.26882693	    -16.07334303	     44.26882693	     75.15126764	     44.87707174	      0.00000000	      0.00000000	     44.26882693	    -16.07334303	     44.26882693	     75.15126764	     44.87707174	      0.00000000	      0.00000000
      0.09500000	      0.92760034	      4.17048244	      6.58594141	     -0.46799735	      0.90091192	      0.19031111	     25.64167288	    -10.44344348	    -18.21849030	     12.79889181	      0.22338280	     -4.69691689	      1.56662901	      0.00000000	    -21.31713166	     -1.55584485	    -14.88369740	     17.30011558	      0.30194398	     -0.13584392	     12.75132218	      0.00000000	     -3.98748205	     -0.51239905	     -2.21097068	     44.27105461	    -16.06794162	     44.27105461	     75.14978107	     44.88040272	      0.00000000	      0.00000000	     44.27105461	    -16.06794162	     44.27105461	     75.14978107	     44.88040272	      0.00000000	      0.00000000
      0.10000000	      1.20770859	      3.81086059	      6.37911883	     -0.45980497	      0.90130459	      0.19138458	     25.36711131	    -10.00240598	    -18.11118287	     13.60452653	      0.23744378	     -5.21385446	      1.19620422	      0.00000000	    -21.51598080	     -2.09702175	    -15.08240049	     18.20563856	      0.31774834	     -1.48226572	     11.85380411	      0.00000000	     -4.16882509	     -0.11437380	     -2.44245876	     44.27146943	    -16.06693712	     44.27146943	     75.14950546	     44.88101361	      0.00000000	      0.00000000	     44.27146943	    -16.06693712	     44.27146943	     75.14950546	     44.88101361	      0.00000000	      0.00000000
